<?xml version="1.0" standalone="no"?>
<!DOCTYPE svg PUBLIC "-//W3C//DTD SVG 20010904//EN"
 "http://www.w3.org/TR/2001/REC-SVG-20010904/DTD/svg10.dtd">
<svg version="1.0" xmlns="http://www.w3.org/2000/svg"
 width="205.000000pt" height="209.000000pt" viewBox="0 0 205.000000 209.000000"
 preserveAspectRatio="xMidYMid meet">
<metadata>
Created by potrace 1.16, written by Peter Selinger 2001-2019
</metadata>
<g transform="translate(0.000000,209.000000) scale(0.100000,-0.100000)"
fill="#000000" stroke="none">
<path d="M975 2024 c-16 -13 -36 -29 -43 -35 -7 -5 -17 -7 -22 -4 -6 4 -9 1
-8 -5 2 -7 -8 -16 -21 -21 -22 -9 -23 -8 -10 8 13 16 12 17 -3 4 -10 -7 -18
-21 -18 -30 0 -14 -2 -14 -10 -1 -9 14 -14 7 -11 -13 1 -5 -3 -6 -8 -3 -10 7
-89 -56 -119 -94 -27 -35 -143 -267 -374 -755 -286 -602 -331 -702 -324 -728
5 -19 152 -255 198 -318 l18 -23 76 37 c42 21 173 92 292 159 120 66 265 148
324 180 l108 60 286 -162 c341 -193 486 -270 505 -270 22 1 231 340 225 365
-5 21 -388 825 -588 1235 -86 176 -113 222 -149 255 -41 37 -42 37 -14 5 l30
-34 -35 25 c-19 14 -84 62 -143 107 -60 45 -114 82 -120 82 -7 0 -25 -12 -42
-26z m118 -495 c96 -172 161 -296 142 -274 -24 30 -205 350 -205 363 0 27 -21
9 -44 -36 -39 -78 -256 -456 -268 -467 -21 -20 242 472 272 510 5 6 12 93 17
195 l8 185 7 -181 8 -182 63 -113z m47 -490 l110 -219 -231 0 c-223 0 -231 1
-226 19 11 43 219 431 228 425 5 -3 59 -104 119 -225z m-37 -416 c-51 -2 -136
-2 -190 0 -54 1 -12 3 92 3 105 0 149 -2 98 -3z M1100 2017 c0 -3 17 -17 37
-33 20 -15 33 -23 29 -16 -8 13 -66 56 -66 49z"/>
</g>
</svg>
